<?xml version="1.0" encoding="UTF-8" standalone="no"?>
<svg
        xmlns:dc="http://purl.org/dc/elements/1.1/"
        xmlns:cc="http://creativecommons.org/ns#"
        xmlns:rdf="http://www.w3.org/1999/02/22-rdf-syntax-ns#"
        xmlns:svg="http://www.w3.org/2000/svg"
        xmlns="http://www.w3.org/2000/svg"
        viewBox="0 0 56.693333 66.239998"
        height="66.239998"
        width="56.693333"
        xml:space="preserve"
        id="svg2"
        version="1.1"><metadata
     id="metadata8"><rdf:RDF><cc:Work
         rdf:about=""><dc:format>image/svg+xml</dc:format><dc:type
        rdf:resource="http://purl.org/dc/dcmitype/StillImage"/></cc:Work></rdf:RDF></metadata>
    <defs
            id="defs6"/>
    <g
            transform="matrix(1.3333333,0,0,-1.3333333,0,66.24)"
            id="g10"><g
       transform="scale(0.1)"
       id="g12"><path
         id="path14"
         style="fill:#b97d1c;fill-opacity:1;fill-rule:nonzero;stroke:none"
         d="m 8.58203,496.754 c -1.15234,0 -2.29687,-0.305 -3.17578,-1.066 -0.89844,-0.79 -1.46484,-1.911 -1.52344,-3.114 C 3.84375,491.848 -0.00390625,418.664 -0.00390625,324.797 -0.00390625,227.113 6.5,174.789 23.9922,131.727 41.7266,88.0195 69.1172,66.4375 123.777,34.5859 176.102,4.11328 197.992,-0.00390625 212.594,-0.00390625 c 14.609,0 36.504,4.11718625 88.816,34.58980625 54.68,31.8516 82.063,53.4336 99.817,97.1411 17.472,43.062 23.964,95.386 23.964,193.07 0,93.867 -3.836,167.051 -3.875,167.777 -0.058,1.203 -0.605,2.324 -1.527,3.114 -0.887,0.773 -2.051,1.062 -3.23,1.062 0,0 -406.82462,0 -407.97697,0.004 z M 411.988,487.141 c 0.879,-18.7 3.625,-83.297 3.625,-162.344 0,-96.309 -6.308,-147.66 -23.261,-189.461 C 384.137,115.125 373.738,99.8203 358.629,85.7148 345.047,73.0352 327.066,60.6211 296.598,42.8672 273.277,29.2891 254.676,20.1445 239.703,14.9141 226.188,10.1875 218.121,9.58203 212.594,9.58203 c -5.52,0 -13.582,0.60547 -27.102,5.33207 -14.969,5.2304 -33.582,14.375 -56.89,27.9531 C 98.1211,60.6211 80.1523,73.0391 66.5781,85.7148 51.4727,99.8203 41.0703,115.125 32.8672,135.328 15.8945,177.133 9.58594,228.484 9.58594,324.797 c 0,79 2.73436,143.527 3.62496,162.297 l 398.7771,0.047" /><path
            id="path16"
            style="fill:#b97d1c;fill-opacity:1;fill-rule:nonzero;stroke:none"
            d="m 335.484,378.539 -4.589,12.844 -4.551,-12.629 -13.563,-0.539 10.782,-8.34 -3.86,-12.965 11.152,7.692 11.243,-7.692 -3.86,13.106 10.774,8.199 -13.528,0.324"/><path
            id="path18"
            style="fill:#b97d1c;fill-opacity:1;fill-rule:nonzero;stroke:none"
            d="m 319.605,305.691 10.301,-9.515 -1.011,13.988 13.867,2.117 -11.574,7.926 6.984,12.16 -13.41,-4.109 -5.157,13.047 -5.144,-13.047 -13.41,4.109 6.98,-12.16 -11.57,-7.926 13.867,-2.117 -1.015,-13.988 10.292,9.515"/><path
            id="path20"
            style="fill:#b97d1c;fill-opacity:1;fill-rule:nonzero;stroke:none"
            d="m 375.555,382.648 10.3,-9.519 -1.015,13.988 13.859,2.117 -11.574,7.926 6.992,12.164 -13.406,-4.113 -5.156,13.047 -5.149,-13.047 -13.418,4.113 6.992,-12.164 -11.574,-7.926 13.871,-2.117 -1.027,-13.988 10.305,9.519"/><path
            id="path22"
            style="fill:#b97d1c;fill-opacity:1;fill-rule:nonzero;stroke:none"
            d="m 325.504,435.113 10.305,-9.519 -1.028,13.988 13.867,2.121 -11.574,7.922 6.996,12.164 -13.418,-4.105 -5.148,13.046 -5.156,-13.046 -13.407,4.105 6.993,-12.164 -11.575,-7.922 13.86,-2.121 -1.02,-13.988 10.305,9.519"/><path
            id="path24"
            style="fill:#b97d1c;fill-opacity:1;fill-rule:nonzero;stroke:none"
            d="m 266.395,389.645 10.3,-9.52 -1.023,13.988 13.863,2.121 -11.57,7.922 6.992,12.16 -13.418,-4.105 -5.144,13.047 -5.149,-13.047 -13.418,4.105 6.992,-12.16 -11.574,-7.922 13.867,-2.121 -1.023,-13.988 10.305,9.52"/><path
            id="path26"
            style="fill:#b97d1c;fill-opacity:1;fill-rule:nonzero;stroke:none"
            d="m 320.121,272.414 c -56.726,27.125 -94.84,46.367 -108.59,46.367 -13.73,0 -49.66,-19.242 -106.379,-46.367 -56.7262,-27.129 -76.0934,-32.937 -76.0934,-44.805 0,-11.871 13.9258,-6.218 18.1562,-4.949 4.2383,1.262 148.9842,48.098 164.3162,48.098 15.34,0 162.285,-46.836 166.524,-48.098 4.234,-1.269 18.164,-6.922 18.164,4.949 0,11.868 -19.375,17.676 -76.098,44.805"/><path
            id="path28"
            style="fill:#b97d1c;fill-opacity:1;fill-rule:nonzero;stroke:none"
            d="m 352.73,183.746 c -24.597,-8.254 -44.128,-26.242 -71.375,-21.121 -23.886,4.496 -43.71,25.129 -68.8,24.809 -27.461,-0.348 -48.184,-24 -75.125,-26.246 -26.485,-2.211 -47.0902,19.179 -71.7777,24.246 -11.164,2.289 -20.9492,0.746 -30.2734,-2.454 1.8945,-9.187 4.0899,-17.652 6.6094,-25.613 7.3555,1.766 15.1094,2.27 23.664,0.516 24.6875,-5.063 45.2927,-26.453 71.7777,-24.242 26.941,2.246 47.664,25.894 75.125,26.246 25.09,0.316 44.914,-20.321 68.8,-24.813 27.247,-5.121 46.778,12.867 71.375,21.125 10.997,3.692 20.821,3.375 30.157,1.051 2.527,7.949 4.718,16.395 6.609,25.566 -11.324,3.926 -23.152,5.5 -36.766,0.93"/><path
            id="path30"
            style="fill:#b97d1c;fill-opacity:1;fill-rule:nonzero;stroke:none"
            d="m 352.73,128.648 c -24.597,-8.253 -44.128,-26.25 -71.375,-21.121 -23.886,4.493 -43.71,25.121 -68.8,24.805 -27.461,-0.348 -48.184,-23.996 -75.125,-26.246 -26.485,-2.207 -47.0902,19.184 -71.7777,24.242 -4.6796,0.965 -9.1132,1.246 -13.3789,1.024 5.586,-11.227 12.5391,-20.946 21.0743,-29.704 0.2734,-0.273 0.5351,-0.476 0.8789,-0.644 2.7812,-1.3477 17.1172,-8.2931 24.2773,-11.8907 12.1871,-6.1289 24.9221,-11.7422 38.9261,-10.5742 26.941,2.25 47.664,25.8989 75.125,26.2419 25.09,0.321 44.914,-20.3122 68.8,-24.8044 16.676,-3.1368 30.719,2.5078 44.551,9.1562 7.176,3.4531 22.528,11.0742 25.41,12.5042 0.34,0.172 0.606,0.371 0.868,0.652 8.105,8.5 15.07,18.234 20.449,29.047 -6.27,0.398 -12.844,-0.316 -19.903,-2.688"/><path
            id="path32"
            style="fill:#b97d1c;fill-opacity:1;fill-rule:nonzero;stroke:none"
            d="m 144.906,52.1602 c 10.969,-6.1719 20.696,-11.1993 29.348,-15.1719 12.168,6.3398 24.363,12.5195 38.301,12.6953 13.933,0.1758 26.242,-6.1055 38.515,-12.5 8.731,4.0273 18.567,9.1289 29.629,15.3828 -23.594,4.7422 -43.293,24.9805 -68.144,24.668 C 187.691,76.918 168.348,57.4961 144.906,52.1602"/><path
            id="path34"
            style="fill:#b97d1c;fill-opacity:1;fill-rule:nonzero;stroke:none"
            d="m 301.305,217.797 c -29.063,8.875 -48.946,14.676 -62.52,18.461 -12.93,3.597 -18.965,4.965 -22.961,5.98 -1.187,0.305 -3.191,0.68 -3.855,0.801 -0.899,-0.164 -2.117,-0.414 -3.789,-0.797 -3.352,-0.765 -8.516,-2.062 -16.446,-4.25 -13.464,-3.711 -34.91,-9.98 -69.05,-20.558 -10.95,-3.399 -23.2152,-7.235 -36.9457,-11.579 16.7697,-7.98 32.8397,-18.714 51.9847,-17.117 26.941,2.25 47.664,25.899 75.125,26.246 25.09,0.317 44.914,-20.312 68.8,-24.804 22.196,-4.176 39.266,6.984 58.133,15.73 -14.343,4.477 -27.121,8.418 -38.476,11.887"/></g></g></svg>
