<?xml version="1.0" encoding="UTF-8" standalone="no"?>
<svg width="24px" height="24px" version="1.1" viewBox="0 0 24 24"
     xmlns="http://www.w3.org/2000/svg">
    <path d="M18 4l2 4h-3l-2-4h-2l2 4h-3l-2-4H8l2 4H7L5 4H4c-1.1 0-1.99.9-1.99 2L2 13h20V4h-4z" fill="#e0e0e0"/>
    <path d="M2 13 2 18c0 1.1.9 2 2 2h3L7 13z" fill="#bf872b"/>
    <rect x="7" y="13" width="5" height="7" fill="#31ccec"/>
    <rect x="12" y="13" width="5" height="7" fill="#21ba45"/>
    <path d="M17 13 17 20h3c1.1 0 2-.9 2-2V13z" fill="#9c27b0"/>
</svg>

