<svg width="1280" height="720" xmlns="http://www.w3.org/2000/svg" xmlns:xlink="http://www.w3.org/1999/xlink" overflow="hidden"><defs><clipPath id="clip0"><rect x="0" y="0" width="1280" height="720"/></clipPath></defs><g clip-path="url(#clip0)"><rect x="0" y="0" width="1280" height="720" fill="#FFFFFF"/><path d="M137 71.3953C137 70.0724 138.072 69 139.395 69L352.605 69C353.928 69 355 70.0724 355 71.3953L355 108.605C355 109.928 353.928 111 352.605 111L139.395 111C138.072 111 137 109.928 137 108.605Z" fill="#4472C4" fill-rule="evenodd"/><rect x="795" y="68" width="86" height="43" stroke="#000000" stroke-width="2" stroke-miterlimit="8" fill="none"/><text font-family="JetBrains Mono,JetBrains Mono_MSFontService,sans-serif" font-weight="400" font-size="19" transform="translate(815.97 95)">moov</text><path d="M355 110C355 119.113 344.116 126.5 330.69 126.5L270.31 126.5C256.884 126.5 246 133.887 246 143 246 133.887 235.116 126.5 221.69 126.5L161.31 126.5C147.884 126.5 137 119.113 137 110" stroke="#000000" stroke-width="2" stroke-miterlimit="8" fill="none" fill-rule="evenodd"/><text font-family="JetBrains Mono,JetBrains Mono_MSFontService,sans-serif" font-weight="400" font-size="16" transform="translate(197.784 163)">probeUnit</text><path d="M137 71.3952C137 70.0724 138.072 69 139.395 69L1190.6 69C1191.93 69 1193 70.0724 1193 71.3952L1193 108.605C1193 109.928 1191.93 111 1190.6 111L139.395 111C138.072 111 137 109.928 137 108.605Z" stroke="#000000" stroke-width="2" stroke-miterlimit="8" fill="none" fill-rule="evenodd"/><path d="M137 89 353.26 89.0001 353.26 91.0001 137 91ZM341.746 82.4593 355.32 90.0001 341.746 97.5409C341.263 97.8091 340.654 97.6352 340.386 97.1524 340.118 96.6696 340.292 96.0608 340.775 95.7926L352.775 89.1259 352.775 90.8743 340.775 84.2076C340.292 83.9394 340.118 83.3306 340.386 82.8478 340.654 82.365 341.263 82.1911 341.746 82.4593Z"/><path d="M137 207.395C137 206.072 138.072 205 139.395 205L352.605 205C353.928 205 355 206.072 355 207.395L355 244.605C355 245.928 353.928 247 352.605 247L139.395 247C138.072 247 137 245.928 137 244.605Z" fill="#4472C4" fill-rule="evenodd"/><path d="M1193 246C1193 255.113 1182.12 262.5 1168.69 262.5L1108.31 262.5C1094.88 262.5 1084 269.887 1084 279 1084 269.887 1073.12 262.5 1059.69 262.5L999.31 262.5C985.884 262.5 975 255.113 975 246" stroke="#000000" stroke-width="2" stroke-miterlimit="8" fill="none" fill-rule="evenodd"/><text font-family="JetBrains Mono,JetBrains Mono_MSFontService,sans-serif" font-weight="400" font-size="16" transform="translate(1035.46 298)">probeUnit</text><path d="M4.80884e-07-1 216.26-0.999896 216.26 1.0001-4.80884e-07 1ZM204.746-7.54073 218.32 0.000104733 204.746 7.54092C204.263 7.80914 203.654 7.63519 203.386 7.15241 203.118 6.66962 203.292 6.06082 203.775 5.79261L215.775-0.874053 215.775 0.874261 203.775-5.79241C203.292-6.06062 203.118-6.66943 203.386-7.15221 203.654-7.63499 204.263-7.80894 204.746-7.54073Z" transform="matrix(-1 0 0 1 1193.32 226)"/><path d="M975 207.395C975 206.072 976.072 205 977.395 205L1190.6 205C1191.93 205 1193 206.072 1193 207.395L1193 244.605C1193 245.928 1191.93 247 1190.6 247L977.395 247C976.072 247 975 245.928 975 244.605Z" fill="#4472C4" fill-rule="evenodd"/><rect x="795" y="204" width="86" height="42" stroke="#000000" stroke-width="2" stroke-miterlimit="8" fill="none"/><text font-family="JetBrains Mono,JetBrains Mono_MSFontService,sans-serif" font-weight="400" font-size="19" transform="translate(815.97 231)">moov</text><path d="M4.80884e-07-1 216.26-0.999896 216.26 1.0001-4.80884e-07 1ZM204.746-7.54073 218.32 0.000104733 204.746 7.54092C204.263 7.80914 203.654 7.63519 203.386 7.15241 203.118 6.66962 203.292 6.06082 203.775 5.79261L215.775-0.874053 215.775 0.874261 203.775-5.79241C203.292-6.06062 203.118-6.66943 203.386-7.15221 203.654-7.63499 204.263-7.80894 204.746-7.54073Z" transform="matrix(-1 0 0 1 1193.32 226)"/><path d="M137 343.395C137 342.072 138.072 341 139.395 341L571.605 341C572.928 341 574 342.072 574 343.395L574 380.605C574 381.928 572.928 383 571.605 383L139.395 383C138.072 383 137 381.928 137 380.605Z" fill="#4472C4" fill-rule="evenodd"/><path d="M574 382C574 391.389 562.786 399 548.954 399L489.546 399C475.714 399 464.5 406.611 464.5 416 464.5 406.611 453.286 399 439.454 399L380.046 399C366.214 399 355 391.389 355 382" stroke="#000000" stroke-width="2" stroke-miterlimit="8" fill="none" fill-rule="evenodd"/><path d="M137 207.339C137 206.047 138.047 205 139.339 205L1190.66 205C1191.95 205 1193 206.047 1193 207.339L1193 243.661C1193 244.953 1191.95 246 1190.66 246L139.339 246C138.047 246 137 244.953 137 243.661Z" stroke="#000000" stroke-width="2" stroke-miterlimit="8" fill="none" fill-rule="evenodd"/><text font-family="JetBrains Mono,JetBrains Mono_MSFontService,sans-serif" font-weight="400" font-size="16" transform="translate(416.24 435)">probeUnit</text><path d="M975 343.338C975 342.047 976.047 341 977.338 341L1190.66 341C1191.95 341 1193 342.047 1193 343.338L1193 379.662C1193 380.953 1191.95 382 1190.66 382L977.338 382C976.047 382 975 380.953 975 379.662Z" fill="#4472C4" fill-rule="evenodd"/><rect x="795" y="340" width="86" height="41" stroke="#000000" stroke-width="2" stroke-miterlimit="8" fill="none"/><text font-family="JetBrains Mono,JetBrains Mono_MSFontService,sans-serif" font-weight="400" font-size="19" transform="translate(815.97 367)">moov</text><path d="M355.004 360 571.535 360.954 571.526 362.954 354.996 362ZM560.052 354.363 573.592 361.964 559.985 369.444C559.502 369.711 558.893 369.534 558.627 369.05 558.361 368.566 558.538 367.958 559.022 367.692L571.051 361.078 571.044 362.827 559.073 356.107C558.591 355.837 558.42 355.227 558.69 354.746 558.961 354.264 559.57 354.093 560.052 354.363Z"/><path d="M137 343.339C137 342.047 138.047 341 139.339 341L1190.66 341C1191.95 341 1193 342.047 1193 343.339L1193 379.661C1193 380.953 1191.95 382 1190.66 382L139.339 382C138.047 382 137 380.953 137 379.661Z" stroke="#000000" stroke-width="2" stroke-miterlimit="8" fill="none" fill-rule="evenodd"/><path d="M137 480.395C137 479.072 138.072 478 139.395 478L571.605 478C572.928 478 574 479.072 574 480.395L574 517.605C574 518.928 572.928 520 571.605 520L139.395 520C138.072 520 137 518.928 137 517.605Z" fill="#4472C4" fill-rule="evenodd"/><path d="M756 480.338C756 479.047 757.047 478 758.338 478L1190.66 478C1191.95 478 1193 479.047 1193 480.338L1193 516.662C1193 517.953 1191.95 519 1190.66 519L758.338 519C757.047 519 756 517.953 756 516.662Z" fill="#4472C4" fill-rule="evenodd"/><rect x="795" y="477" width="86" height="41" stroke="#000000" stroke-width="2" stroke-miterlimit="8" fill="none"/><text font-family="JetBrains Mono,JetBrains Mono_MSFontService,sans-serif" font-weight="400" font-size="19" transform="translate(815.97 504)">moov</text><path d="M974.456 499.218 758.061 499.002 758.063 497.002 974.458 497.218ZM769.567 505.554 756.001 498 769.582 490.473C770.065 490.205 770.674 490.38 770.941 490.863 771.209 491.346 771.034 491.954 770.551 492.222L758.545 498.877 758.547 497.128 770.54 503.807C771.022 504.076 771.196 504.685 770.927 505.167 770.658 505.65 770.049 505.823 769.567 505.554Z"/><path d="M137 479.395C137 478.072 138.072 477 139.395 477L1190.6 477C1191.93 477 1193 478.072 1193 479.395L1193 516.605C1193 517.928 1191.93 519 1190.6 519L139.395 519C138.072 519 137 517.928 137 516.605Z" stroke="#000000" stroke-width="2" stroke-miterlimit="8" fill="none" fill-rule="evenodd"/><rect x="137" y="614" width="619" height="42" fill="#4472C4"/><rect x="756" y="614" width="437" height="41" fill="#4472C4"/><rect x="795" y="613" width="86" height="41" stroke="#000000" stroke-width="2" stroke-miterlimit="8" fill="none"/><text font-family="JetBrains Mono,JetBrains Mono_MSFontService,sans-serif" font-weight="400" font-size="19" transform="translate(815.97 640)">moov</text><path d="M574 634 754.249 634 754.249 636 574 636ZM742.735 627.459 756.309 635 742.735 642.541C742.252 642.809 741.644 642.635 741.375 642.152 741.107 641.67 741.281 641.061 741.764 640.793L753.764 634.126 753.764 635.874 741.764 629.208C741.281 628.939 741.107 628.331 741.375 627.848 741.644 627.365 742.252 627.191 742.735 627.459Z"/><path d="M137 616.339C137 615.047 138.047 614 139.339 614L1190.66 614C1191.95 614 1193 615.047 1193 616.339L1193 652.661C1193 653.953 1191.95 655 1190.66 655L139.339 655C138.047 655 137 653.953 137 652.661Z" stroke="#000000" stroke-width="2" stroke-miterlimit="8" fill="none" fill-rule="evenodd"/><text font-family="DengXian,DengXian_MSFontService,sans-serif" font-weight="400" font-size="24" transform="translate(76.8756 232)">2<tspan font-size="24" x="0" y="137">3</tspan><tspan font-size="24" x="0" y="274">4</tspan><tspan font-size="24" x="0" y="411">5</tspan><tspan font-size="24" x="0" y="-137">1</tspan></text></g></svg>